<svg width="82" height="22" viewBox="0 0 82 22" fill="none" xmlns="http://www.w3.org/2000/svg">
<path fill-rule="evenodd" clip-rule="evenodd" d="M31.9065 4.992L38.4585 21.792H41.4105L34.6905 4.992H31.9065ZM35.2665 2.472C35.5545 2.76 35.8905 2.904 36.2745 2.904C36.6745 2.904 37.0185 2.76 37.3065 2.472C37.5945 2.184 37.7385 1.848 37.7385 1.464C37.7385 1.064 37.5945 0.72 37.3065 0.432C37.0185 0.144 36.6745 0 36.2745 0C35.8905 0 35.5545 0.144 35.2665 0.432C34.9785 0.72 34.8345 1.064 34.8345 1.464C34.8345 1.848 34.9785 2.184 35.2665 2.472ZM28.919 2.14849C28.7987 1.94039 28.7385 1.71222 28.7385 1.464C28.7385 1.048 28.8825 0.704 29.1705 0.432C29.4585 0.144 29.7945 0 30.1785 0C30.5785 0 30.9225 0.144 31.2105 0.432C31.3777 0.58986 31.4963 0.77197 31.5665 0.978332C31.6824 1.18701 31.7403 1.41823 31.7403 1.67199C31.7403 2.05599 31.5963 2.39199 31.3083 2.67999C31.0203 2.96799 30.6763 3.11199 30.2763 3.11199C29.8923 3.11199 29.5563 2.96799 29.2683 2.67999C29.1063 2.51801 28.9899 2.34084 28.919 2.14849ZM32.4603 22L30.8504 17.872H23.6062L21.9963 22H19.0443L25.7403 5.19999H25.9083H28.5483H28.6923L35.4123 22H32.4603ZM27.2283 8.58461L29.8863 15.4H24.5703L27.2283 8.58461ZM24.1803 3.11199C23.7963 3.11199 23.4603 2.96799 23.1723 2.67999C22.8843 2.39199 22.7403 2.05599 22.7403 1.67199C22.7403 1.25599 22.8843 0.911993 23.1723 0.639993C23.4603 0.351993 23.7963 0.207993 24.1803 0.207993C24.5803 0.207993 24.9243 0.351993 25.2123 0.639993C25.5003 0.911993 25.6443 1.25599 25.6443 1.67199C25.6443 2.05599 25.5003 2.39199 25.2123 2.67999C24.9243 2.96799 24.5803 3.11199 24.1803 3.11199ZM44.8706 22V7.74399H39.7106V5.19999H52.445H52.8146H65.549V7.74399H60.389V22H57.605V7.74399H52.8146H52.445H47.6546V22H44.8706ZM78.4994 22L76.8895 17.872H69.6453L68.0354 22H65.0834L71.7794 5.19999H71.9474H74.5874H74.7314L81.4514 22H78.4994ZM73.2674 8.58461L75.9254 15.4H70.6094L73.2674 8.58461ZM76.3154 3.11199C75.9314 3.11199 75.5954 2.96799 75.3074 2.67999C75.0194 2.39199 74.8754 2.05599 74.8754 1.67199C74.8754 1.27199 75.0194 0.927993 75.3074 0.639993C75.5954 0.351993 75.9314 0.207993 76.3154 0.207993C76.7154 0.207993 77.0594 0.351993 77.3474 0.639993C77.6354 0.927993 77.7794 1.27199 77.7794 1.67199C77.7794 2.05599 77.6354 2.39199 77.3474 2.67999C77.0594 2.96799 76.7154 3.11199 76.3154 3.11199ZM70.2194 3.11199C69.8354 3.11199 69.4994 2.96799 69.2114 2.67999C68.9234 2.39199 68.7794 2.05599 68.7794 1.67199C68.7794 1.25599 68.9234 0.911993 69.2114 0.639993C69.4994 0.351993 69.8354 0.207993 70.2194 0.207993C70.6194 0.207993 70.9634 0.351993 71.2514 0.639993C71.5394 0.911993 71.6834 1.25599 71.6834 1.67199C71.6834 2.05599 71.5394 2.39199 71.2514 2.67999C70.9634 2.96799 70.6194 3.11199 70.2194 3.11199ZM0 5.19999V22H2.784V9.63999L8.232 17.68L13.704 9.59199V22H16.488V5.19999H13.488L8.256 12.976L2.976 5.19999H0Z" fill="currentColor" fill-opacity="0.9"/>
</svg>
