<?xml version="1.0" standalone="no"?>
<!DOCTYPE svg PUBLIC "-//W3C//DTD SVG 20010904//EN"
 "http://www.w3.org/TR/2001/REC-SVG-20010904/DTD/svg10.dtd">
<svg version="1.0" xmlns="http://www.w3.org/2000/svg"
 width="2015.000000pt" height="1043.000000pt" viewBox="0 0 2015.000000 1043.000000"
 preserveAspectRatio="xMidYMid meet">

<g transform="translate(0.000000,1043.000000) scale(0.100000,-0.100000)"
fill="currentColor" fill-opacity="0.9" stroke="none">
<path d="M12333 9725 c-65 -33 -177 -149 -234 -245 -61 -102 -148 -318 -220
-542 -34 -106 -75 -221 -91 -255 -63 -135 -155 -234 -483 -521 -315 -276 -520
-555 -638 -872 -123 -330 -72 -611 137 -755 54 -37 55 -39 39 -58 -29 -31
-546 -462 -605 -503 -104 -73 -106 -97 -8 -183 118 -105 233 -257 310 -410 65
-130 87 -161 114 -161 39 0 56 30 56 96 0 107 68 172 81 77 3 -23 11 -48 18
-57 28 -33 84 -10 93 39 9 49 72 20 109 -50 23 -43 23 -45 6 -74 -9 -16 -17
-36 -17 -44 0 -27 38 -45 81 -40 46 7 79 -16 79 -54 0 -30 -61 -97 -103 -113
-70 -28 -84 -61 -42 -98 14 -12 25 -27 25 -33 0 -12 -44 -55 -84 -82 -39 -27
-34 -64 19 -139 25 -35 63 -90 85 -123 67 -99 77 -99 178 3 117 118 360 306
601 466 119 79 230 150 246 159 17 8 68 22 114 31 103 19 121 33 121 96 0 39
-9 61 -51 131 -28 46 -72 125 -96 174 -25 50 -80 155 -123 235 -83 153 -176
365 -205 465 -9 33 -23 70 -31 82 -16 26 -13 28 51 37 95 14 281 58 422 102
78 24 144 44 147 44 3 0 1 -13 -4 -30 -15 -52 -32 -372 -25 -467 7 -111 39
-246 95 -407 65 -187 104 -256 212 -373 53 -57 54 -64 34 -140 -8 -29 -22
-108 -31 -175 -9 -68 -25 -181 -36 -253 -32 -210 -44 -437 -44 -815 0 -305 3
-366 18 -430 31 -135 84 -219 177 -285 24 -17 23 -17 -65 -11 -211 14 -1104
18 -1515 7 -901 -24 -1584 -71 -2414 -167 -120 -14 -221 -23 -224 -20 -3 3 2
14 10 23 8 10 28 41 43 68 40 70 103 142 315 361 199 205 300 322 300 347 0
26 -31 36 -80 27 -25 -5 -86 -10 -136 -12 l-90 -3 4 76 c4 73 3 78 -20 93 -38
25 -120 8 -289 -59 -191 -75 -337 -139 -439 -191 -117 -59 -300 -175 -372
-236 l-47 -39 76 158 c123 257 142 323 93 323 -11 0 -71 -59 -150 -145 -72
-80 -135 -145 -139 -145 -10 0 3 87 30 199 17 74 18 87 5 99 -20 21 -33 9 -65
-62 -16 -35 -33 -66 -39 -70 -6 -3 -17 16 -27 46 -22 67 -42 90 -74 86 -34 -4
-62 -60 -92 -183 l-23 -94 -115 -42 c-140 -50 -191 -58 -225 -35 -30 19 -70
21 -84 3 -6 -7 -30 -50 -52 -95 -23 -45 -45 -82 -51 -82 -5 0 -48 36 -96 81
-48 45 -107 95 -131 112 -37 27 -42 35 -37 57 28 106 46 223 52 325 10 203
-39 343 -137 392 -55 29 -134 30 -210 3 -30 -10 -56 -17 -59 -15 -4 4 166 334
224 435 69 120 58 110 112 94 67 -21 221 -23 257 -4 32 16 56 57 56 94 0 36
-33 118 -63 158 -18 24 -23 38 -17 48 5 8 10 26 10 40 0 16 32 -35 89 -145
136 -262 249 -442 325 -514 45 -44 89 -46 122 -7 17 19 48 34 110 52 181 52
323 115 373 164 27 27 31 39 31 83 0 29 7 111 14 182 64 585 107 890 128 911
11 11 26 9 83 -11 39 -13 110 -36 158 -50 104 -31 166 -79 203 -160 37 -79 32
-110 -31 -205 -30 -45 -55 -86 -55 -90 0 -4 -31 -10 -70 -12 -78 -4 -105 -19
-157 -87 -89 -116 -68 -231 45 -256 l34 -7 -29 -32 c-89 -94 -253 -310 -253
-331 0 -39 32 -53 105 -47 55 4 66 2 71 -12 4 -10 2 -22 -5 -29 -20 -20 -12
-67 25 -150 19 -45 43 -115 53 -156 19 -80 38 -104 69 -85 13 9 20 37 29 125
12 107 48 307 57 317 11 10 92 -79 112 -125 28 -63 55 -81 89 -59 39 25 45 67
37 226 -5 80 -7 147 -4 150 2 3 8 -3 13 -13 14 -24 62 -47 99 -47 47 0 86 34
119 103 76 162 66 343 -24 433 l-41 41 63 74 c35 41 81 109 103 153 36 70 40
86 40 152 0 118 -39 188 -142 254 -87 57 -185 91 -503 176 -164 43 -207 61
-200 83 2 9 38 137 80 284 41 147 116 404 166 570 143 478 229 834 229 953 0
128 -61 185 -149 139 -114 -59 -524 -637 -729 -1030 l-83 -160 5 95 c7 113 30
248 136 787 119 602 171 918 205 1245 26 253 17 350 -33 377 -57 31 -94 1
-205 -167 -264 -397 -623 -1051 -754 -1372 -28 -69 -58 -141 -66 -160 -14 -32
-15 -7 -10 275 8 438 -7 554 -78 594 -35 20 -72 0 -122 -64 -39 -51 -160 -288
-172 -337 -10 -39 -21 -35 -28 10 -33 225 -71 443 -82 469 -18 41 -54 60 -85
43 -29 -16 -49 -62 -110 -265 -56 -185 -109 -312 -136 -322 -32 -12 -83 66
-199 302 -132 269 -170 325 -219 325 -21 0 -40 -8 -52 -21 -17 -20 -19 -38
-18 -233 1 -220 17 -478 33 -533 l10 -33 -42 22 c-57 29 -216 36 -347 14 -443
-73 -964 -327 -1433 -699 -133 -105 -384 -352 -506 -497 -455 -542 -742 -1207
-801 -1859 -16 -168 -8 -575 15 -756 99 -811 346 -1534 642 -1883 24 -28 42
-52 39 -52 -13 0 -287 141 -372 191 -444 261 -827 632 -1003 969 -92 177 -128
343 -118 534 11 201 92 447 179 544 54 59 60 82 58 212 -3 261 -46 398 -137
437 -40 16 -83 6 -129 -29 -24 -20 -116 -150 -127 -181 -3 -8 -13 -2 -30 15
-37 39 -77 37 -119 -5 -80 -80 -347 -580 -407 -763 -48 -142 -62 -227 -68
-391 -4 -113 -9 -153 -18 -153 -27 0 -73 -69 -86 -127 -20 -88 -15 -270 10
-400 67 -350 205 -570 468 -745 l52 -34 -77 -18 c-117 -27 -200 -64 -249 -111
-38 -36 -43 -47 -43 -85 0 -147 246 -288 658 -376 20 -4 16 -9 -38 -55 -162
-135 -160 -237 6 -255 117 -12 506 3 659 25 381 57 612 122 770 216 64 39 80
43 71 18 -15 -37 -18 -101 -7 -122 7 -12 25 -30 41 -40 l29 -17 -222 -89
c-504 -201 -886 -369 -1252 -552 -280 -141 -395 -205 -682 -384 -122 -76 -233
-144 -247 -151 -28 -12 -35 -28 -13 -28 8 0 97 48 198 106 391 226 613 341
989 511 361 164 1019 434 1335 548 72 26 153 56 180 67 295 118 1194 424 1639
558 1844 552 3845 861 6041 931 400 13 1560 7 1915 -10 727 -35 1212 -71 1890
-142 596 -62 1507 -185 1590 -214 24 -8 68 -15 99 -15 93 0 875 -134 1428
-245 304 -62 283 -58 283 -46 0 20 -506 128 -1130 241 -179 32 -346 62 -372
65 -27 4 -48 10 -48 14 1 3 21 21 45 39 102 75 184 220 269 475 31 92 69 220
85 285 15 64 59 242 97 395 l68 277 36 0 c64 0 353 41 435 61 186 46 315 100
428 178 127 88 221 193 252 282 19 54 19 192 0 255 -8 27 -15 50 -15 51 0 1
92 33 98 33 2 0 1 -24 -3 -52 -8 -64 14 -177 49 -254 49 -106 141 -204 281
-298 38 -25 67 -46 64 -46 -12 0 -112 41 -174 71 -51 25 -94 57 -157 121 -49
47 -90 83 -92 79 -9 -14 59 -108 123 -171 106 -103 273 -181 419 -195 57 -6
71 -4 85 10 30 29 24 37 -76 103 -215 142 -310 235 -377 367 -42 83 -78 235
-66 279 4 13 38 40 91 70 247 143 395 374 396 619 1 108 -16 190 -56 273 l-33
68 41 35 c64 54 114 109 169 186 62 87 92 146 131 255 28 78 31 95 30 210 -1
145 -21 238 -76 346 -90 178 -215 285 -370 315 -53 11 -58 14 -52 33 19 56 17
166 -4 233 -61 202 -235 342 -556 449 -94 32 -124 37 -205 38 -52 1 -111 -2
-131 -7 -36 -7 -37 -7 -67 46 -86 153 -306 266 -655 338 -256 52 -464 36 -630
-48 -27 -13 -50 -23 -52 -21 -2 2 -11 34 -20 73 -37 159 -123 238 -316 286
-72 19 -102 21 -204 16 -182 -9 -490 -74 -619 -131 -70 -31 -76 -32 -76 -8 0
35 -61 140 -104 180 -97 89 -219 123 -374 102 -228 -30 -443 -151 -608 -342
l-77 -90 -38 134 c-21 73 -50 192 -64 263 -51 255 -73 313 -148 382 -90 83
-246 97 -367 32 -111 -59 -219 -195 -306 -385 -19 -41 -40 -77 -48 -80 -8 -3
-47 5 -88 18 -61 19 -93 23 -198 22 -69 -1 -154 -6 -188 -12 -35 -6 -76 -9
-91 -6 l-27 6 -23 199 c-25 218 -45 306 -95 413 -64 137 -143 175 -253 121z
m114 -60 c78 -55 140 -285 159 -590 7 -114 21 -160 51 -169 57 -16 94 -16 186
-3 184 28 225 29 315 7 98 -23 160 -25 187 -6 20 14 25 22 88 152 52 105 83
152 151 223 76 78 122 103 207 109 115 8 187 -41 222 -153 9 -27 28 -117 42
-200 14 -82 42 -206 60 -274 26 -93 35 -145 35 -202 0 -69 3 -80 22 -93 57
-40 106 -13 207 118 127 165 220 245 368 320 64 32 200 66 265 66 121 0 219
-49 273 -135 28 -45 30 -55 30 -144 0 -53 4 -102 8 -108 17 -27 68 -14 128 31
72 54 182 98 342 136 262 61 412 71 533 33 140 -44 186 -103 209 -268 15 -107
31 -135 77 -135 16 0 48 13 71 29 174 119 371 151 602 98 367 -84 546 -189
609 -355 37 -97 69 -112 157 -73 102 45 194 37 357 -31 158 -65 213 -97 279
-161 130 -124 160 -251 96 -394 -39 -84 -40 -92 -12 -127 l22 -28 106 7 c97 7
112 5 158 -15 96 -41 193 -172 237 -320 26 -86 32 -242 11 -319 -58 -221 -246
-454 -403 -500 -55 -15 -82 -43 -82 -81 0 -59 64 -87 136 -59 24 9 30 7 46
-13 32 -43 60 -153 62 -240 3 -227 -146 -431 -409 -563 -136 -68 -192 -84
-238 -67 -98 35 -188 -24 -143 -94 21 -31 54 -44 111 -44 41 0 44 -2 59 -40
22 -55 21 -171 -1 -218 -24 -52 -114 -138 -208 -200 -189 -124 -531 -212 -828
-212 -117 0 -142 -15 -152 -88 -4 -26 -22 -117 -41 -202 -18 -85 -52 -246 -74
-357 -22 -111 -56 -257 -76 -325 -20 -68 -44 -156 -54 -195 -21 -89 -88 -230
-141 -300 l-40 -53 -58 0 c-76 0 -205 34 -254 66 -27 17 -47 43 -65 82 -24 52
-27 70 -30 214 l-4 158 35 107 c70 213 92 332 116 623 7 74 16 176 21 227 16
152 13 243 -10 281 -26 43 -51 52 -203 69 -143 17 -169 12 -211 -38 -33 -39
-45 -106 -57 -309 -11 -206 -35 -378 -83 -597 -48 -220 -64 -317 -76 -473 -20
-254 -38 -293 -143 -310 -232 -37 -369 134 -353 440 6 138 34 273 122 600 110
406 117 437 118 535 1 83 -2 96 -31 156 -41 83 -110 149 -186 178 -73 27 -90
26 -272 -5 -132 -24 -186 -28 -461 -33 -286 -5 -314 -8 -333 -25 -33 -30 -39
-68 -51 -311 -6 -126 -15 -261 -21 -300 -5 -38 -20 -160 -34 -270 -13 -110
-33 -247 -44 -305 -10 -58 -22 -122 -26 -143 -11 -70 -77 -272 -93 -291 -47
-52 -109 -39 -193 41 -65 62 -92 115 -108 218 -21 126 -38 571 -34 831 5 215
3 260 -12 309 -41 141 -146 245 -248 245 -66 0 -105 -31 -150 -120 -61 -120
-68 -182 -71 -650 -3 -436 -7 -487 -62 -668 -40 -134 -108 -191 -230 -192 -90
0 -150 24 -211 86 -75 77 -109 177 -115 334 -4 109 10 533 23 670 5 58 9 146
9 195 0 50 7 146 15 215 40 322 47 369 59 420 8 30 17 80 21 110 7 62 6 64
-106 195 -64 75 -123 197 -188 390 -69 204 -82 296 -70 467 5 73 18 169 29
212 11 44 20 87 20 95 0 10 23 25 63 40 306 117 929 417 1092 526 119 80 225
163 225 177 0 5 -3 8 -7 6 -5 -2 -132 -65 -283 -140 -303 -150 -724 -340 -980
-441 -528 -208 -940 -289 -1316 -259 -380 31 -575 160 -615 408 -14 88 6 229
52 363 43 125 160 353 233 454 98 137 258 320 394 452 364 351 396 386 442
475 24 46 73 177 110 290 149 457 265 659 427 741 45 23 62 24 90 4z m-4607
-662 c-40 -316 -98 -661 -200 -1178 -95 -485 -121 -652 -122 -794 -1 -147 23
-201 90 -201 50 0 75 32 171 221 181 353 470 793 646 984 l46 50 -6 -64 c-10
-102 -113 -491 -250 -946 -223 -743 -275 -954 -274 -1122 0 -22 -4 -58 -10
-80 -15 -60 -49 -282 -70 -468 -66 -569 -61 -550 -131 -584 -42 -21 -234 -90
-343 -124 l-78 -24 -94 141 c-133 200 -216 341 -290 491 -127 259 -262 637
-326 913 -30 130 -49 177 -49 120 0 -61 54 -352 93 -508 37 -144 105 -356 142
-443 6 -15 0 -14 -40 8 -28 14 -64 25 -87 25 -35 0 -39 3 -54 40 -24 60 -55
80 -126 80 -74 0 -128 -26 -159 -77 -47 -76 -24 -200 50 -267 l20 -19 -72 -81
c-81 -89 -310 -381 -365 -463 -19 -29 -38 -53 -42 -53 -20 0 -185 442 -250
670 -82 288 -92 310 -137 310 -27 0 -27 5 -8 -106 21 -119 44 -192 116 -375
34 -85 95 -244 135 -354 41 -109 84 -209 96 -222 26 -28 83 -31 114 -5 12 9
45 53 75 97 154 231 381 524 439 565 36 26 39 61 8 90 -12 11 -25 20 -30 20
-14 0 -58 75 -58 100 0 35 24 66 56 74 34 9 44 -5 44 -61 0 -63 19 -76 96 -68
47 5 70 3 93 -9 58 -30 62 -75 8 -92 -32 -10 -57 -34 -57 -57 0 -29 29 -57 57
-57 13 0 33 -5 45 -11 25 -13 64 -97 51 -110 -5 -5 -37 -14 -70 -19 -52 -9
-67 -7 -104 9 -24 11 -44 26 -44 32 0 29 -26 16 -76 -39 -109 -117 -177 -231
-429 -712 -61 -118 -121 -225 -132 -237 -19 -20 -23 -21 -47 -8 -63 32 -168
169 -240 312 -113 225 -237 612 -302 938 -43 219 -46 227 -72 223 -21 -3 -22
-8 -20 -78 7 -189 55 -406 170 -755 116 -353 218 -544 362 -678 75 -69 121
-86 173 -64 44 18 80 66 156 206 79 145 141 196 250 207 112 12 163 -39 184
-185 10 -66 9 -111 -5 -258 -10 -98 -17 -184 -17 -191 0 -9 -8 -9 -36 3 -20 8
-57 15 -83 15 -46 0 -46 0 -70 -52 -14 -29 -27 -69 -31 -88 -7 -42 -12 -43
-135 -6 -49 15 -117 28 -150 29 -56 2 -64 -1 -117 -40 -33 -25 -132 -130 -234
-250 -209 -244 -286 -326 -331 -354 -26 -17 -33 -27 -33 -53 0 -19 8 -39 18
-48 36 -32 185 -110 373 -196 107 -50 220 -102 250 -117 l54 -28 -135 -34
c-74 -19 -231 -61 -348 -94 -118 -32 -217 -59 -221 -59 -4 0 -14 19 -21 42
-19 67 -46 112 -85 146 -30 27 -43 32 -89 32 -64 0 -111 -28 -141 -83 -16 -29
-26 -37 -48 -37 -23 0 -184 -32 -424 -84 -35 -8 -63 -12 -63 -10 0 2 13 115
30 252 16 136 34 316 41 401 16 211 7 714 -15 841 -67 386 -214 625 -423 690
-197 61 -435 -22 -633 -219 -122 -122 -178 -251 -167 -378 6 -61 23 -110 34
-99 3 3 6 40 7 83 1 64 7 89 32 143 61 129 195 257 349 333 86 42 160 61 245
61 217 0 378 -219 446 -604 56 -324 37 -874 -53 -1467 -18 -122 -15 -135 34
-154 39 -15 344 50 509 107 27 10 61 18 76 18 16 1 27 4 25 8 -1 3 8 17 20 30
17 18 20 27 11 36 -8 8 -2 20 24 46 69 69 136 37 184 -84 15 -39 25 -72 23
-73 -2 -2 -62 -21 -134 -41 -215 -63 -1030 -337 -1340 -450 -252 -93 -301
-108 -385 -117 -55 -5 -108 -6 -125 -1 -33 10 -32 0 -19 153 l7 86 -33 23
c-26 19 -34 20 -41 9 -5 -8 -9 -19 -9 -25 0 -19 -66 -72 -128 -103 -158 -80
-405 -136 -817 -186 -163 -20 -595 -33 -595 -17 0 19 124 115 180 139 83 37
85 38 88 71 5 45 -23 58 -206 102 -196 48 -363 106 -450 158 -79 47 -127 94
-119 116 18 45 163 105 322 132 111 19 125 26 125 60 0 19 -12 30 -63 55 -259
131 -426 336 -511 632 -55 188 -76 415 -47 500 15 43 23 40 41 -16 6 -21 23
-45 36 -54 22 -14 26 -14 50 2 22 14 25 22 21 48 -23 125 -27 165 -27 263 0
220 46 387 185 669 91 185 200 375 215 375 6 0 10 -10 10 -22 0 -29 38 -68 67
-68 35 0 61 32 126 151 58 106 110 179 128 179 27 0 55 -117 69 -288 9 -109 8
-117 -18 -195 -14 -45 -41 -103 -59 -128 -109 -154 -172 -407 -160 -649 12
-233 92 -430 276 -678 77 -103 351 -380 471 -476 217 -173 612 -402 787 -456
165 -51 232 3 131 105 -95 95 -242 349 -329 567 -281 704 -420 1645 -330 2243
55 363 186 747 369 1080 406 737 1090 1340 1867 1644 343 135 612 192 735 156
30 -8 60 -17 65 -18 6 -1 16 -6 24 -11 8 -5 17 -3 23 5 5 8 6 149 3 349 l-6
335 31 -55 c17 -30 60 -113 95 -185 116 -237 181 -315 262 -315 31 0 50 7 74
27 43 36 99 158 146 316 21 70 40 127 43 127 3 0 16 -64 28 -142 47 -291 74
-368 131 -368 40 0 56 23 107 150 54 135 95 218 138 280 l31 45 6 -30 c4 -16
7 -242 8 -500 1 -274 5 -484 11 -504 11 -40 24 -51 62 -51 35 0 44 17 98 184
98 300 311 727 621 1242 72 121 161 265 198 321 l66 103 3 -45 c2 -25 -11
-156 -28 -292z m3168 -2569 c137 -45 249 -58 483 -58 l216 0 0 -25 c1 -41 57
-217 107 -335 51 -122 280 -571 332 -652 19 -29 34 -55 34 -58 0 -2 -24 -10
-52 -16 -76 -18 -121 -43 -344 -191 -240 -160 -329 -224 -499 -363 -71 -58
-133 -106 -137 -106 -4 0 -25 23 -47 52 l-39 52 31 39 c26 32 32 48 33 91 0
48 4 55 51 102 28 28 56 67 63 88 25 77 -11 167 -79 196 -22 9 -31 20 -36 48
-23 123 -126 214 -224 198 -30 -4 -40 -2 -45 10 -3 8 -22 22 -41 30 -54 22
-100 9 -151 -42 l-42 -43 -45 77 c-57 99 -153 228 -222 300 -30 31 -55 58 -54
61 0 4 64 60 141 126 233 198 369 326 417 392 32 44 50 61 61 57 8 -4 48 -17
88 -30z m-2862 -243 c12 -11 191 -72 344 -116 291 -85 394 -161 395 -295 0
-75 -38 -149 -126 -246 -39 -43 -77 -90 -85 -105 -22 -44 -8 -116 31 -160 18
-20 39 -54 46 -75 20 -57 15 -170 -9 -225 -36 -83 -55 -71 -67 44 -7 72 -22
97 -60 97 -26 0 -55 -33 -55 -64 0 -69 -47 -135 -88 -122 -47 15 -53 89 -16
183 31 77 33 111 8 130 -26 19 -37 17 -91 -16 -53 -33 -110 -47 -132 -32 -18
12 0 59 36 93 20 19 34 23 75 21 68 -3 105 17 118 65 5 20 24 57 40 82 65 94
73 118 68 195 -8 127 -78 234 -189 290 -28 15 -117 43 -198 64 l-147 37 18 40
c10 21 23 58 29 82 11 41 32 54 55 33z m168 -1154 c-11 -76 29 -167 87 -201
16 -9 45 -17 66 -19 l38 -2 11 -105 c7 -58 11 -106 9 -108 -1 -2 -13 13 -25
33 -28 46 -106 105 -137 105 -58 0 -61 -5 -104 -225 l-12 -60 -24 54 c-22 49
-22 55 -8 77 44 68 -10 133 -122 146 -21 3 -17 10 43 88 113 146 146 200 141
225 -4 22 3 29 35 34 4 0 5 -18 2 -42z m7141 -306 c22 -10 55 -35 74 -56 84
-96 84 -157 3 -475 -149 -579 -184 -813 -148 -988 21 -105 53 -178 102 -232
l39 -43 -40 6 c-116 19 -753 89 -1212 133 l-62 6 29 51 c16 29 38 85 49 124
45 163 127 641 162 943 4 41 13 164 18 272 5 109 13 202 16 208 4 6 97 10 248
11 214 0 263 3 422 28 217 35 249 36 300 12z m-1834 -78 c22 -20 53 -60 67
-87 l27 -51 0 -340 c0 -187 3 -345 7 -351 4 -6 12 -96 18 -200 18 -301 37
-358 156 -478 l49 -49 -35 6 c-19 3 -168 13 -330 22 -162 9 -310 19 -328 21
l-33 5 41 30 c68 49 103 124 148 314 26 110 26 112 26 560 1 431 2 453 22 512
45 130 90 154 165 86z m2811 -99 c32 -4 63 -13 69 -20 11 -13 -3 -225 -31
-475 -6 -47 -10 -111 -10 -142 0 -127 -54 -377 -117 -539 -21 -56 -35 -114
-39 -160 -11 -130 39 -303 109 -375 21 -22 26 -33 16 -33 -9 0 -116 15 -240
34 -123 19 -246 37 -274 41 l-50 7 30 15 c39 20 83 61 100 94 19 35 42 163 55
294 5 61 23 173 40 250 16 77 42 204 59 282 33 156 57 354 69 569 5 99 12 147
22 159 15 18 11 18 192 -1z m-7527 -661 c4 -16 12 -45 20 -66 13 -35 12 -37
-8 -42 -420 -89 -783 -224 -1062 -395 -60 -36 -66 -38 -45 -15 68 74 300 234
446 308 67 33 349 149 479 196 49 17 108 33 157 40 4 1 10 -11 13 -26z m-1340
-130 c11 -13 30 -25 43 -26 21 -1 22 -4 16 -63 -8 -76 0 -111 26 -119 33 -11
75 21 155 120 43 52 79 95 81 95 2 0 -14 -36 -37 -81 -52 -104 -99 -232 -99
-270 0 -23 -12 -41 -57 -82 -117 -108 -310 -335 -379 -445 -8 -13 -56 42 -83
95 -35 67 -118 169 -251 306 -73 77 -82 90 -67 98 9 6 33 36 53 67 20 31 38
58 39 60 2 2 17 -4 34 -12 59 -31 117 -21 241 40 102 50 116 54 138 43 38 -21
88 23 66 59 -9 13 -7 33 8 82 30 100 28 98 41 76 7 -10 21 -30 32 -43z m1625
-6 c0 -2 -54 -52 -120 -111 -136 -121 -445 -461 -467 -514 -8 -20 -32 -65 -54
-101 l-39 -66 -243 -34 c-211 -29 -731 -110 -809 -127 -41 -8 -37 20 13 91 99
141 214 246 411 375 291 191 637 333 1123 460 94 25 185 38 185 27z m-2678
-130 c32 -17 93 -60 136 -94 145 -115 625 -603 525 -533 -12 8 -66 49 -120 91
-208 161 -441 301 -634 379 l-57 23 24 51 c13 28 27 66 30 84 8 41 23 41 96
-1z m-361 -147 c117 -39 342 -139 464 -207 128 -70 292 -185 474 -332 195
-157 197 -159 191 -164 -3 -3 -133 -31 -290 -62 -258 -51 -728 -155 -855 -188
l-50 -14 -46 41 c-25 23 -72 55 -105 72 -148 77 -459 246 -471 256 -10 8 0 24
45 73 53 56 151 176 366 448 42 54 87 102 99 107 29 12 74 5 178 -30z"/>
<path d="M11582 8140 c-80 -54 -123 -108 -130 -165 -4 -40 -1 -48 26 -73 17
-16 53 -35 79 -43 65 -19 277 -16 366 5 80 19 167 61 167 80 0 29 -135 44
-407 46 -51 0 -73 4 -73 12 0 7 28 41 62 75 52 53 61 66 52 81 -21 33 -75 27
-142 -18z"/>
<path d="M12636 7889 c-57 -50 -76 -85 -76 -139 0 -74 49 -126 147 -157 64
-20 278 -28 383 -14 92 12 192 54 198 83 4 20 -52 29 -183 29 -119 1 -309 17
-360 30 -49 13 -76 35 -68 57 3 10 23 40 44 69 45 60 43 83 -6 83 -24 0 -45
-11 -79 -41z"/>
<path d="M10986 7057 c-12 -9 -17 -23 -14 -47 3 -32 7 -36 48 -46 38 -9 45
-15 51 -40 7 -37 27 -74 39 -74 6 0 20 21 33 48 16 32 28 46 40 44 29 -5 97
18 97 33 0 56 -238 123 -294 82z"/>
<path d="M7250 6615 c-17 -44 -11 -107 13 -150 41 -73 140 -123 182 -91 19 14
19 15 -10 37 -57 44 -82 78 -94 126 -24 95 -25 98 -54 101 -21 3 -29 -2 -37
-23z"/>
<path d="M7630 6599 c-43 -18 -70 -50 -70 -85 0 -41 12 -49 74 -49 l49 0 23
-73 c35 -117 80 -144 116 -72 41 81 4 221 -72 273 -27 19 -81 21 -120 6z"/>
<path d="M7168 6235 c-37 -21 -61 -69 -53 -105 8 -37 46 -77 81 -86 36 -9 94
21 112 59 41 86 -58 178 -140 132z"/>
<path d="M7570 6157 c-33 -17 -70 -74 -70 -109 0 -36 52 -93 76 -84 9 3 25 6
36 6 11 0 33 13 49 29 23 24 29 38 29 74 0 38 -5 49 -31 71 -34 29 -52 32 -89
13z"/>
<path d="M7485 5057 c-52 -44 -40 -154 21 -194 41 -26 106 -24 138 6 34 32 40
69 20 120 -34 85 -121 119 -179 68z"/>
<path d="M7869 4353 c-57 -74 -61 -81 -51 -87 8 -5 112 124 112 138 0 18 -23
-1 -61 -51z"/>
<path d="M7950 4265 c-92 -124 -144 -235 -110 -235 5 0 19 19 31 43 12 23 46
84 76 136 30 51 52 98 50 104 -2 6 -23 -16 -47 -48z"/>
</g>
</svg>
